<?xml version="1.0" encoding="UTF-8" standalone="no"?>
<svg
   class="icon icon-tabler icon-tabler-arrow-back-up"
   width="764.81061"
   height="261"
   viewBox="0 0 764.81061 261"
   stroke-width="2"
   stroke="currentColor"
   fill="none"
   stroke-linecap="round"
   stroke-linejoin="round"
   version="1.1"
   id="svg1064"
   sodipodi:docname="logo.svg"
   inkscape:export-filename="IconoIni.png"
   inkscape:export-xdpi="96"
   inkscape:export-ydpi="96"
   inkscape:version="1.2.2 (732a01da63, 2022-12-09)"
   xml:space="preserve"
   xmlns:inkscape="http://www.inkscape.org/namespaces/inkscape"
   xmlns:sodipodi="http://sodipodi.sourceforge.net/DTD/sodipodi-0.dtd"
   xmlns="http://www.w3.org/2000/svg"
   xmlns:svg="http://www.w3.org/2000/svg"><defs
     id="defs1068"><clipPath
       clipPathUnits="userSpaceOnUse"
       id="clipPath6382"><g
         id="g6386"
         transform="matrix(0.89045006,0.35947772,-0.47129365,0.94116671,0,0)"><ellipse
           style="fill:none;fill-opacity:1;stroke:#005f9f;stroke-width:0.0803161;stroke-dasharray:none;stroke-opacity:1"
           id="ellipse6384"
           cx="137.48788"
           cy="128.77817"
           rx="137.1889"
           ry="128" /></g></clipPath><clipPath
       clipPathUnits="userSpaceOnUse"
       id="clipPath6388"><g
         id="g6392"
         transform="matrix(0.87781261,-0.38048685,0.49575756,0.93357392,0,0)"><ellipse
           style="fill:none;fill-opacity:1;stroke:#005f9f;stroke-width:0.0803161;stroke-dasharray:none;stroke-opacity:1"
           id="ellipse6390"
           cx="137.48788"
           cy="128.77817"
           rx="137.1889"
           ry="128" /></g></clipPath><clipPath
       clipPathUnits="userSpaceOnUse"
       id="clipPath6394"><g
         id="g6398"><ellipse
           style="fill:none;fill-opacity:1;stroke:#005f9f;stroke-width:0.0803161;stroke-dasharray:none;stroke-opacity:1"
           id="ellipse6396"
           cx="137.48788"
           cy="128.77817"
           rx="137.1889"
           ry="128" /></g></clipPath><clipPath
       clipPathUnits="userSpaceOnUse"
       id="clipPath6400"><g
         id="g6404"><ellipse
           style="fill:none;fill-opacity:1;stroke:#005f9f;stroke-width:0.0803161;stroke-dasharray:none;stroke-opacity:1"
           id="ellipse6402"
           cx="137.48788"
           cy="128.77817"
           rx="137.1889"
           ry="128" /></g></clipPath><clipPath
       clipPathUnits="userSpaceOnUse"
       id="clipPath6406"><g
         id="g6410"><ellipse
           style="fill:none;fill-opacity:1;stroke:#005f9f;stroke-width:0.0803161;stroke-dasharray:none;stroke-opacity:1"
           id="ellipse6408"
           cx="137.48788"
           cy="128.77817"
           rx="137.1889"
           ry="128" /></g></clipPath></defs><sodipodi:namedview
     id="namedview1066"
     pagecolor="#ffffff"
     bordercolor="#000000"
     borderopacity="0.25"
     inkscape:showpageshadow="2"
     inkscape:pageopacity="0.0"
     inkscape:pagecheckerboard="0"
     inkscape:deskcolor="#d1d1d1"
     showgrid="false"
     inkscape:zoom="1.4142136"
     inkscape:cx="383.25187"
     inkscape:cy="162.63456"
     inkscape:window-width="1920"
     inkscape:window-height="1017"
     inkscape:window-x="-8"
     inkscape:window-y="-8"
     inkscape:window-maximized="1"
     inkscape:current-layer="svg1064" /><path
     style="fill:#d96134;fill-opacity:1;stroke:none;stroke-width:0.91479;stroke-dasharray:none"
     d="m -6.3970043,154.48565 c 0,0 -6.4499497,6.2463 0.5159843,11.83505 6.9659623,5.58886 13.6739169,10.62969 13.6739169,10.62969 0,0 5.9339521,5.91758 18.1888791,-2.41086 12.254913,-8.32833 32.249779,-21.14976 32.249779,-21.14976 L 175.4918,77.886173 175.10485,29.230716 c 0,0 -5.41798,-11.177609 -16.12491,-3.068369 C 148.27301,34.2716 -6.3969787,154.48565 -6.3969658,154.48565 Z"
     id="path430"
     clip-path="url(#clipPath6406)"
     transform="matrix(0.95406633,0,0,0.89378074,478.92274,15.640574)" /><path
     style="fill:#d96134;fill-opacity:1;stroke:none;stroke-width:1.44495;stroke-dasharray:none"
     d="m 234.90677,204.34951 c 0,0 9.33495,6.351 -7.56058,10.33713 -16.89552,3.98615 -38.77964,16.85709 -38.77964,16.85709 0,0 -22.46026,11.95812 -32.11986,4.18294 C 122.79741,204.67408 44.081234,131.81803 -11.833056,79.657269 -17.667647,74.451395 -25.55339,58.144882 -10.017075,46.41017 L 27.253948,21.866488 C 39.177104,14.458872 53.511572,17.047527 66.40082,29.516178 79.737218,43.017151 234.90681,204.34952 234.90677,204.34951 Z"
     id="path430-1"
     sodipodi:nodetypes="csccccccc"
     clip-path="url(#clipPath6400)"
     transform="matrix(0.95406633,0,0,0.89378074,478.92274,15.640574)" /><path
     style="fill:#f1561c;fill-opacity:1;stroke:none;stroke-width:0.91479;stroke-dasharray:none"
     d="m 156.33398,235.70774 c 0,0 5.72859,6.01407 16.38247,2.48861 10.65387,-3.52486 59.34771,-22.80178 59.34771,-22.80178 0,0 7.83801,-4.91114 7.70897,-9.29451 -0.12851,-4.38339 -4.16587,-153.151085 -4.16587,-153.151085 0,0 -1.03198,-5.807962 -8.772,-8.985918 -7.73989,-3.177944 -51.08361,-20.821017 -51.08361,-20.821017 0,0 -8.18733,-1.738501 -13.01827,0.759047 6.89152,-1.574174 10.83954,3.443675 11.47029,5.596841 1.5834,6.792064 -5.38921,202.280742 -5.38921,202.280742 0,0 -2.10959,8.28795 -12.48078,3.92858 z"
     id="path992"
     sodipodi:nodetypes="cscscscccccc"
     clip-path="url(#clipPath6394)"
     transform="matrix(0.95406633,0,0,0.89378074,478.92274,15.640574)" /><path
     id="rect4792"
     clip-path="url(#clipPath6388)"
     style="fill:#748a99;stroke:none;stroke-width:0.0867876"
     transform="matrix(1.1911197,0.48545207,-0.63252258,1.1199755,428.54433,-1.0009153)"
     d="m 146.25897,-62.80035 h 97.15989 v 16.392652 h -97.15989 z" /><path
     id="rect4792-6"
     clip-path="url(#clipPath6382)"
     style="fill:#748a99;stroke:none;stroke-width:0.0867596"
     transform="matrix(1.2485049,-0.47686525,0.6251947,1.1812268,423.81074,-82.177577)"
     d="M 23.437902,287.72208 H 120.8677 v 16.33669 H 23.437902 Z" /><text
     xml:space="preserve"
     style="font-size:81.5622px;font-family:sans-serif;-inkscape-font-specification:sans-serif;text-align:end;text-anchor:end;fill:#007acc;stroke:#000000;stroke-width:3.82323;stroke-linejoin:round;stroke-miterlimit:10"
     x="448.34827"
     y="108.86134"
     id="text433"><tspan
       sodipodi:role="line"
       id="tspan431"
       x="448.34827"
       y="108.86134"
       style="font-style:normal;font-variant:normal;font-weight:normal;font-stretch:normal;font-size:81.5622px;font-family:Arial;-inkscape-font-specification:Arial;text-align:end;text-anchor:end;stroke:none;stroke-width:3.82323">Optic Stuido</tspan><tspan
       sodipodi:role="line"
       x="448.34827"
       y="211.558"
       style="font-style:normal;font-variant:normal;font-weight:normal;font-stretch:normal;font-size:81.5622px;font-family:Arial;-inkscape-font-specification:Arial;text-align:end;text-anchor:end;stroke:none;stroke-width:3.82323"
       id="tspan1101">IDE</tspan></text></svg>
